# xmcd
#
# Track frame offsets: 
#        150
#        14269
#        28567
#        42479
#        57363
#        69404
#        83195
#        96335
#        111457
#        122544
#        134925
#        148620
#        161602
#        177162
#        190745
#        205774
#        218074
#        233999
#        248683
#        263465
#        279122
#        294271
#        308613
#
# Disc length: 4298 seconds
#
# Revision: 0
# Processed by: cddbd v1.5.2PL0 Copyright (c) Steve Scherf et al.
# Submitted via: ExactAudioCopy v0.95b4
#
DISCID=4710c817
DTITLE=Victoria Spivey - 1926 - 1927 Vol, 1
DYEAR=1991
DGENRE=Blues
TTITLE0=Black Snake Blues
TTITLE1=Dirty Woman's Blues
TTITLE2=Long Gone Blues
TTITLE3=No More Jelly Bean Blues
TTITLE4=Hoodoo Man Blues
TTITLE5=Spider Web Blues
TTITLE6=It's Evil Hearted Me
TTITLE7=Santa Fe Blues
TTITLE8=Humored And Petted Blues
TTITLE9=Big Hoston Blues
TTITLE10=Got The Blues SO Bad
TTITLE11=Blue Valley Blues
TTITLE12=Steady Grind
TTITLE13=Idle Hour Blues
TTITLE14=Arkansas Road Blues
TTITLE15=The Alligator Pond Went Dry
TTITLE16=No. 12 Let Me Roam
TTITLE17=T-B Blues
TTITLE18=Garter Snake Blues
TTITLE19=Christmas Morning Blues
TTITLE20=Dope Head Blues
TTITLE21=Red Lantern Blues
TTITLE22=Blood Thirsty Blues
EXTD=
EXTT0=
EXTT1=
EXTT2=
EXTT3=
EXTT4=
EXTT5=
EXTT6=
EXTT7=
EXTT8=
EXTT9=
EXTT10=
EXTT11=
EXTT12=
EXTT13=
EXTT14=
EXTT15=
EXTT16=
EXTT17=
EXTT18=
EXTT19=
EXTT20=
EXTT21=
EXTT22=
PLAYORDER=
